G75*
%MOIN*%
%OFA0B0*%
%FSLAX25Y25*%
%IPPOS*%
%LPD*%
%AMOC8*
5,1,8,0,0,1.08239X$1,22.5*
%
%ADD10R,0.07156X0.07156*%
%ADD11C,0.07156*%
%ADD12C,0.00500*%
%ADD13C,0.07600*%
%ADD14C,0.09518*%
%ADD15C,0.05124*%
%ADD16C,0.07943*%
%ADD17R,0.08337X0.08337*%
%ADD18OC8,0.12274*%
%ADD19C,0.19298*%
%ADD20C,0.08400*%
D10*
X0083573Y0086000D03*
X0073573Y0111000D03*
X0148573Y0066000D03*
X0153573Y0101000D03*
D11*
X0153573Y0091000D03*
X0158573Y0066000D03*
X0083573Y0096000D03*
X0073573Y0121000D03*
D12*
X0151450Y0044627D02*
X0152087Y0044978D01*
X0152780Y0045199D01*
X0153503Y0045280D01*
X0154162Y0045230D01*
X0154803Y0045066D01*
X0155406Y0044794D01*
X0155953Y0044421D01*
X0156426Y0043959D01*
X0156812Y0043421D01*
X0157099Y0042825D01*
X0157277Y0042188D01*
X0157343Y0041530D01*
X0157276Y0040872D01*
X0157095Y0040235D01*
X0156807Y0039640D01*
X0156420Y0039103D01*
X0155945Y0038642D01*
X0155398Y0038271D01*
X0154794Y0038000D01*
X0154152Y0037838D01*
X0153493Y0037790D01*
X0152773Y0037868D01*
X0152083Y0038086D01*
X0151449Y0038434D01*
X0150895Y0038899D01*
X0150442Y0039463D01*
X0150108Y0040105D01*
X0149905Y0040799D01*
X0149843Y0041520D01*
X0149904Y0042245D01*
X0150106Y0042944D01*
X0150440Y0043590D01*
X0150894Y0044158D01*
X0151450Y0044627D01*
X0151146Y0044370D02*
X0156004Y0044370D01*
X0156488Y0043872D02*
X0150666Y0043872D01*
X0150328Y0043373D02*
X0156835Y0043373D01*
X0157075Y0042875D02*
X0150086Y0042875D01*
X0149942Y0042376D02*
X0157225Y0042376D01*
X0157308Y0041878D02*
X0149873Y0041878D01*
X0149855Y0041379D02*
X0157328Y0041379D01*
X0157277Y0040881D02*
X0149898Y0040881D01*
X0150027Y0040382D02*
X0157137Y0040382D01*
X0156925Y0039884D02*
X0150223Y0039884D01*
X0150504Y0039385D02*
X0156623Y0039385D01*
X0156197Y0038887D02*
X0150909Y0038887D01*
X0151532Y0038388D02*
X0155571Y0038388D01*
X0154358Y0037890D02*
X0152705Y0037890D01*
X0152780Y0034178D02*
X0153503Y0034259D01*
X0154162Y0034210D01*
X0154803Y0034046D01*
X0155406Y0033774D01*
X0155953Y0033401D01*
X0156426Y0032939D01*
X0156812Y0032401D01*
X0157099Y0031805D01*
X0157277Y0031168D01*
X0157343Y0030510D01*
X0157276Y0029852D01*
X0157095Y0029215D01*
X0156807Y0028620D01*
X0156420Y0028083D01*
X0155945Y0027622D01*
X0155398Y0027251D01*
X0154794Y0026980D01*
X0154152Y0026818D01*
X0153493Y0026770D01*
X0152773Y0026848D01*
X0152083Y0027066D01*
X0151449Y0027414D01*
X0150895Y0027879D01*
X0150442Y0028443D01*
X0150108Y0029085D01*
X0149905Y0029779D01*
X0149843Y0030500D01*
X0149904Y0031225D01*
X0150106Y0031923D01*
X0150440Y0032569D01*
X0150894Y0033138D01*
X0151450Y0033607D01*
X0152087Y0033958D01*
X0152780Y0034178D01*
X0151985Y0033902D02*
X0155123Y0033902D01*
X0155949Y0033403D02*
X0151209Y0033403D01*
X0150708Y0032905D02*
X0156450Y0032905D01*
X0156808Y0032406D02*
X0150356Y0032406D01*
X0150101Y0031908D02*
X0157049Y0031908D01*
X0157210Y0031409D02*
X0149957Y0031409D01*
X0149877Y0030911D02*
X0157303Y0030911D01*
X0157333Y0030412D02*
X0149850Y0030412D01*
X0149894Y0029914D02*
X0157282Y0029914D01*
X0157152Y0029415D02*
X0150012Y0029415D01*
X0150195Y0028917D02*
X0156951Y0028917D01*
X0156661Y0028418D02*
X0150462Y0028418D01*
X0150862Y0027920D02*
X0156251Y0027920D01*
X0155649Y0027421D02*
X0151440Y0027421D01*
X0152538Y0026923D02*
X0154568Y0026923D01*
X0155240Y0044869D02*
X0151889Y0044869D01*
D13*
X0133573Y0076000D03*
X0123573Y0076000D03*
X0113573Y0076000D03*
X0103573Y0076000D03*
X0103573Y0106000D03*
X0113573Y0106000D03*
X0123573Y0106000D03*
X0133573Y0106000D03*
D14*
X0193888Y0055685D03*
X0193888Y0045843D03*
X0213573Y0036000D03*
X0193888Y0026157D03*
X0193888Y0016315D03*
X0053258Y0016315D03*
X0053258Y0026157D03*
X0033573Y0036000D03*
X0053258Y0045843D03*
X0053258Y0055685D03*
D15*
X0023730Y0016315D03*
X0033573Y0016315D03*
X0053258Y0036000D03*
X0033573Y0055685D03*
X0023730Y0055685D03*
X0193888Y0036000D03*
X0213573Y0055685D03*
X0223415Y0055685D03*
X0223415Y0016315D03*
X0213573Y0016315D03*
D16*
X0168573Y0016000D03*
X0168573Y0056000D03*
D17*
X0108415Y0018441D03*
X0098573Y0018441D03*
X0088730Y0018441D03*
D18*
X0081250Y0046000D03*
X0115896Y0046000D03*
D19*
X0043337Y0072890D03*
X0031919Y0091394D03*
X0055148Y0091394D03*
D20*
X0049273Y0131000D03*
X0038573Y0131000D03*
X0027873Y0131000D03*
M02*
