%
M48
M72
T01C0.02756
T02C0.03200
T03C0.03543
T04C0.03937
T05C0.04000
T06C0.04724
T07C0.05118
T08C0.07874
T09C0.11811
%
T01
X83573Y86000
X83573Y96000
X73573Y111000
X73573Y121000
X153573Y101000
X153573Y91000
X158573Y66000
X148573Y66000
T02
X133573Y76000
X123573Y76000
X113573Y76000
X103573Y76000
X103573Y106000
X113573Y106000
X123573Y106000
X133573Y106000
T03
X168573Y56000
X168573Y16000
T04
X108415Y18441
X98573Y18441
X88730Y18441
T05
X153573Y30500
X153573Y41500
X49273Y131000
X38573Y131000
X27873Y131000
T06
X23730Y16315
X33573Y16315
X53258Y36000
X33573Y55685
X23730Y55685
X193888Y36000
X213573Y55685
X223415Y55685
X223415Y16315
X213573Y16315
T07
X193888Y16315
X193888Y26157
X213573Y36000
X193888Y45843
X193888Y55685
X53258Y55685
X53258Y45843
X33573Y36000
X53258Y26157
X53258Y16315
T08
X81250Y46000
X115896Y46000
T09
X43337Y72890
X31919Y91394
X55148Y91394
M30
