G75*
%MOIN*%
%OFA0B0*%
%FSLAX25Y25*%
%IPPOS*%
%LPD*%
%AMOC8*
5,1,8,0,0,1.08239X$1,22.5*
%
%ADD10R,0.06756X0.06756*%
%ADD11C,0.06756*%
%ADD12C,0.08000*%
%ADD13C,0.07200*%
%ADD14C,0.09118*%
%ADD15C,0.07543*%
%ADD16R,0.07937X0.07937*%
%ADD17OC8,0.11874*%
%ADD18C,0.18898*%
%ADD19C,0.03200*%
D10*
X0083573Y0086000D03*
X0073573Y0111000D03*
X0148573Y0066000D03*
X0153573Y0101000D03*
D11*
X0153573Y0091000D03*
X0158573Y0066000D03*
X0083573Y0096000D03*
X0073573Y0121000D03*
D12*
X0049273Y0131000D03*
X0038573Y0131000D03*
X0027873Y0131000D03*
X0153573Y0041500D03*
X0153573Y0030500D03*
D13*
X0133573Y0076000D03*
X0123573Y0076000D03*
X0113573Y0076000D03*
X0103573Y0076000D03*
X0103573Y0106000D03*
X0113573Y0106000D03*
X0123573Y0106000D03*
X0133573Y0106000D03*
D14*
X0053258Y0016315D03*
X0053258Y0026157D03*
X0033573Y0036000D03*
X0053258Y0045843D03*
X0053258Y0055685D03*
X0193888Y0055685D03*
X0193888Y0045843D03*
X0213573Y0036000D03*
X0193888Y0026157D03*
X0193888Y0016315D03*
D15*
X0168573Y0016000D03*
X0168573Y0056000D03*
D16*
X0108415Y0018441D03*
X0098573Y0018441D03*
X0088730Y0018441D03*
D17*
X0081250Y0046000D03*
X0115896Y0046000D03*
D18*
X0043337Y0072890D03*
X0031919Y0091394D03*
X0055148Y0091394D03*
D19*
X0055148Y0104425D01*
X0038573Y0121000D01*
X0038573Y0131000D01*
X0049273Y0131000D02*
X0049273Y0125300D01*
X0063573Y0111000D01*
X0073573Y0111000D01*
X0078573Y0111000D01*
X0083573Y0116000D01*
X0118573Y0116000D01*
X0123573Y0111000D01*
X0123573Y0106000D01*
X0133573Y0106000D02*
X0143573Y0116000D01*
X0158573Y0116000D01*
X0168573Y0106000D01*
X0168573Y0086000D01*
X0148573Y0066000D01*
X0148573Y0046500D01*
X0153573Y0041500D01*
X0154073Y0031000D02*
X0153573Y0030500D01*
X0154073Y0031000D02*
X0163573Y0031000D01*
X0168573Y0036000D01*
X0168573Y0056000D01*
X0158573Y0066000D02*
X0183573Y0066000D01*
X0193888Y0055685D01*
X0203573Y0061000D02*
X0203573Y0046000D01*
X0213573Y0036000D01*
X0213573Y0026000D01*
X0203573Y0016000D01*
X0193888Y0016000D01*
X0193888Y0016315D01*
X0168888Y0016315D01*
X0168573Y0016000D01*
X0143573Y0016000D01*
X0138573Y0021000D01*
X0138573Y0076000D01*
X0153573Y0091000D01*
X0148573Y0096000D02*
X0153573Y0101000D01*
X0148573Y0096000D02*
X0118573Y0096000D01*
X0113573Y0101000D01*
X0113573Y0106000D01*
X0103573Y0106000D02*
X0088573Y0106000D01*
X0083573Y0101000D01*
X0083573Y0096000D01*
X0083573Y0086000D02*
X0083573Y0081000D01*
X0088573Y0076000D01*
X0103573Y0076000D01*
X0113573Y0076000D02*
X0113573Y0081000D01*
X0118573Y0086000D01*
X0128573Y0086000D01*
X0133573Y0081000D01*
X0133573Y0076000D01*
X0138573Y0076000D01*
X0123573Y0076000D02*
X0123573Y0071000D01*
X0103573Y0051000D01*
X0103573Y0036000D01*
X0098573Y0031000D01*
X0098573Y0018441D01*
X0088730Y0018441D02*
X0088573Y0018441D01*
X0088573Y0036000D01*
X0093573Y0041000D01*
X0093573Y0056000D01*
X0098573Y0061000D01*
X0113573Y0076000D01*
X0098573Y0061000D02*
X0078573Y0061000D01*
X0073573Y0066000D01*
X0048573Y0066000D01*
X0043337Y0071236D01*
X0043337Y0072890D01*
X0031919Y0084307D01*
X0031919Y0091394D01*
X0073573Y0121000D02*
X0078573Y0121000D01*
X0083573Y0126000D01*
X0168573Y0126000D01*
X0183573Y0111000D01*
X0183573Y0081000D01*
X0203573Y0061000D01*
X0108415Y0018441D02*
X0108573Y0013283D01*
X0108573Y0011000D01*
X0103573Y0006000D01*
X0063573Y0006000D01*
X0053258Y0016315D01*
X0033573Y0036000D02*
X0033573Y0046000D01*
X0043573Y0056000D01*
X0052943Y0056000D01*
X0053258Y0055685D01*
X0073258Y0055685D01*
X0078573Y0061000D01*
M02*
