G75*
%MOIN*%
%OFA0B0*%
%FSLAX25Y25*%
%IPPOS*%
%LPD*%
%AMOC8*
5,1,8,0,0,1.08239X$1,22.5*
%
%ADD10R,0.07156X0.07156*%
%ADD11C,0.07156*%
%ADD12C,0.00500*%
%ADD13C,0.07600*%
%ADD14C,0.09518*%
%ADD15C,0.05124*%
%ADD16C,0.07943*%
%ADD17R,0.08337X0.08337*%
%ADD18OC8,0.12274*%
%ADD19C,0.19298*%
%ADD20C,0.08400*%
D10*
X0083573Y0086000D03*
X0073573Y0111000D03*
X0148573Y0066000D03*
X0153573Y0101000D03*
D11*
X0153573Y0091000D03*
X0158573Y0066000D03*
X0083573Y0096000D03*
X0073573Y0121000D03*
D12*
X0152455Y0042882D02*
X0152775Y0043093D01*
X0153133Y0043228D01*
X0153513Y0043280D01*
X0153913Y0043245D01*
X0154296Y0043122D01*
X0154641Y0042916D01*
X0154933Y0042639D01*
X0155155Y0042304D01*
X0155297Y0041928D01*
X0155352Y0041530D01*
X0155301Y0041137D01*
X0155164Y0040765D01*
X0154948Y0040433D01*
X0154663Y0040158D01*
X0154324Y0039952D01*
X0153947Y0039828D01*
X0153553Y0039790D01*
X0153169Y0039837D01*
X0152806Y0039967D01*
X0152480Y0040176D01*
X0152210Y0040451D01*
X0152007Y0040780D01*
X0151882Y0041146D01*
X0151843Y0041530D01*
X0151876Y0041911D01*
X0151994Y0042276D01*
X0152191Y0042605D01*
X0152455Y0042882D01*
X0152448Y0042875D02*
X0154685Y0042875D01*
X0155107Y0042376D02*
X0152054Y0042376D01*
X0151873Y0041878D02*
X0155304Y0041878D01*
X0155333Y0041379D02*
X0151858Y0041379D01*
X0151973Y0040881D02*
X0155207Y0040881D01*
X0154895Y0040382D02*
X0152277Y0040382D01*
X0153038Y0039884D02*
X0154117Y0039884D01*
X0153513Y0032260D02*
X0153913Y0032225D01*
X0154296Y0032102D01*
X0154641Y0031896D01*
X0154933Y0031619D01*
X0155155Y0031284D01*
X0155297Y0030908D01*
X0155352Y0030510D01*
X0155301Y0030117D01*
X0155164Y0029745D01*
X0154948Y0029413D01*
X0154663Y0029138D01*
X0154324Y0028932D01*
X0153947Y0028808D01*
X0153553Y0028770D01*
X0153169Y0028817D01*
X0152806Y0028947D01*
X0152480Y0029156D01*
X0152210Y0029431D01*
X0152007Y0029760D01*
X0151882Y0030126D01*
X0151843Y0030510D01*
X0151876Y0030891D01*
X0151994Y0031256D01*
X0152191Y0031585D01*
X0152455Y0031862D01*
X0152775Y0032073D01*
X0153133Y0032208D01*
X0153513Y0032260D01*
X0152524Y0031908D02*
X0154622Y0031908D01*
X0155072Y0031409D02*
X0152086Y0031409D01*
X0151883Y0030911D02*
X0155296Y0030911D01*
X0155340Y0030412D02*
X0151853Y0030412D01*
X0151955Y0029914D02*
X0155226Y0029914D01*
X0154949Y0029415D02*
X0152225Y0029415D01*
X0152891Y0028917D02*
X0154276Y0028917D01*
D13*
X0133573Y0076000D03*
X0123573Y0076000D03*
X0113573Y0076000D03*
X0103573Y0076000D03*
X0103573Y0106000D03*
X0113573Y0106000D03*
X0123573Y0106000D03*
X0133573Y0106000D03*
D14*
X0193888Y0055685D03*
X0193888Y0045843D03*
X0213573Y0036000D03*
X0193888Y0026157D03*
X0193888Y0016315D03*
X0053258Y0016315D03*
X0053258Y0026157D03*
X0033573Y0036000D03*
X0053258Y0045843D03*
X0053258Y0055685D03*
D15*
X0023730Y0016315D03*
X0033573Y0016315D03*
X0053258Y0036000D03*
X0033573Y0055685D03*
X0023730Y0055685D03*
X0193888Y0036000D03*
X0213573Y0055685D03*
X0223415Y0055685D03*
X0223415Y0016315D03*
X0213573Y0016315D03*
D16*
X0168573Y0016000D03*
X0168573Y0056000D03*
D17*
X0108415Y0018441D03*
X0098573Y0018441D03*
X0088730Y0018441D03*
D18*
X0081250Y0046000D03*
X0115896Y0046000D03*
D19*
X0043337Y0072890D03*
X0031919Y0091394D03*
X0055148Y0091394D03*
D20*
X0049273Y0131000D03*
X0038573Y0131000D03*
X0027873Y0131000D03*
M02*
